<svg width="36" height="36" viewBox="0 0 36 36" fill="none" xmlns="http://www.w3.org/2000/svg">
<path d="M29.1937 22.5562C29.1188 21.6181 28.9299 20.6925 28.6312 19.8C26.3812 11.7 17.9999 1.125 17.9999 1.125C17.9999 1.125 9.61867 11.7 7.31242 19.8C7.01368 20.6925 6.82479 21.6181 6.74992 22.5562C6.74992 22.8375 6.69367 23.1187 6.69367 23.4C6.67883 24.8969 6.95992 26.3819 7.52077 27.7698C8.08163 29.1577 8.9112 30.4211 9.96182 31.4874C11.0124 32.5537 12.2634 33.4019 13.6429 33.9833C15.0223 34.5646 16.503 34.8677 17.9999 34.875C19.4921 34.8603 20.9667 34.5518 22.3397 33.9672C23.7126 33.3825 24.957 32.5332 26.0016 31.4676C27.0463 30.402 27.8709 29.1411 28.4282 27.7569C28.9856 26.3726 29.2648 24.8922 29.2499 23.4C29.2499 23.1187 29.2499 22.8375 29.1937 22.5562Z" stroke="#0793F2" stroke-width="2" stroke-miterlimit="10" stroke-linecap="round" stroke-linejoin="round"/>
<path d="M21.375 16.875L14.625 28.125" stroke="#0793F2" stroke-width="2" stroke-miterlimit="10" stroke-linecap="round" stroke-linejoin="round"/>
<path d="M14.625 20.25C15.8676 20.25 16.875 19.2426 16.875 18C16.875 16.7574 15.8676 15.75 14.625 15.75C13.3824 15.75 12.375 16.7574 12.375 18C12.375 19.2426 13.3824 20.25 14.625 20.25Z" stroke="#0793F2" stroke-width="2" stroke-miterlimit="10" stroke-linecap="round" stroke-linejoin="round"/>
<path d="M21.375 29.25C22.6176 29.25 23.625 28.2426 23.625 27C23.625 25.7574 22.6176 24.75 21.375 24.75C20.1324 24.75 19.125 25.7574 19.125 27C19.125 28.2426 20.1324 29.25 21.375 29.25Z" stroke="#0793F2" stroke-width="2" stroke-miterlimit="10" stroke-linecap="round" stroke-linejoin="round"/>
</svg>
