<svg width="218" height="218" viewBox="0 0 218 218" fill="none" xmlns="http://www.w3.org/2000/svg">
<g clip-path="url(#clip0)">
<path d="M144.797 47.095C144.797 42.953 141.439 39.595 137.297 39.595H7.5C3.358 39.595 0 42.953 0 47.095C0 51.237 3.358 54.595 7.5 54.595H137.297C141.439 54.595 144.797 51.237 144.797 47.095Z" fill="white"/>
<path d="M209.93 70.405H58.632C54.49 70.405 51.132 73.763 51.132 77.905C51.132 82.047 54.49 85.405 58.632 85.405H209.93C214.072 85.405 217.43 82.047 217.43 77.905C217.43 73.763 214.072 70.405 209.93 70.405Z" fill="white"/>
<path d="M174.53 116.214C178.672 116.214 182.03 112.856 182.03 108.714C182.03 104.572 178.672 101.214 174.53 101.214H22.446C18.304 101.214 14.946 104.572 14.946 108.714C14.946 112.856 18.304 116.214 22.446 116.214H174.53Z" fill="white"/>
<path d="M199.441 132.024H47.619C43.477 132.024 40.119 135.382 40.119 139.524C40.119 143.666 43.477 147.024 47.619 147.024H199.441C203.583 147.024 206.941 143.666 206.941 139.524C206.941 135.382 203.583 132.024 199.441 132.024Z" fill="white"/>
<path d="M125.759 162.835H25.068C20.926 162.835 17.568 166.193 17.568 170.335C17.568 174.477 20.926 177.835 25.068 177.835H125.758C129.9 177.835 133.258 174.477 133.258 170.335C133.259 166.193 129.901 162.835 125.759 162.835Z" fill="white"/>
</g>
<defs>
<clipPath id="clip0">
<rect width="217.43" height="217.43" fill="white"/>
</clipPath>
</defs>
</svg>
