<svg width="32" height="32" viewBox="0 0 32 32" fill="none" xmlns="http://www.w3.org/2000/svg">
<path d="M16 32C24.8366 32 32 24.8366 32 16C32 7.16344 24.8366 0 16 0C7.16344 0 0 7.16344 0 16C0 24.8366 7.16344 32 16 32Z" fill="#0793F2"/>
<path d="M16 28.1449C9.29762 28.1449 3.8551 22.7023 3.8551 16C3.8551 9.29762 9.29762 3.8551 16 3.8551C22.7023 3.8551 28.1449 9.29762 28.1449 16C28.1449 22.7023 22.7023 28.1449 16 28.1449Z" fill="#324A5E"/>
<path d="M25.6252 16.5543C25.6252 16.378 25.6504 16.1764 25.6504 16C25.6504 10.6835 21.3417 6.34961 16 6.34961C10.6835 6.34961 6.34961 10.6583 6.34961 16C6.34961 16.1764 6.34961 16.378 6.37481 16.5543H25.6252Z" fill="#E6E9EE"/>
<path d="M12.9007 10.4819C12.8503 10.4063 12.7747 10.3811 12.6991 10.4315C12.6236 10.4567 12.5732 10.5575 12.6236 10.6331L15.2692 17.0079C15.2944 17.0331 15.2944 17.0835 15.3196 17.1087C15.5212 17.4362 15.9495 17.537 16.2771 17.3354C16.6047 17.1339 16.7054 16.7055 16.5039 16.3779L12.9007 10.4819Z" fill="#FF7058"/>
<path d="M15.9999 18.293C16.9601 18.293 17.7385 17.5146 17.7385 16.5544C17.7385 15.5942 16.9601 14.8158 15.9999 14.8158C15.0397 14.8158 14.2614 15.5942 14.2614 16.5544C14.2614 17.5146 15.0397 18.293 15.9999 18.293Z" fill="#FFD05B"/>
<path d="M16 8.56688C15.8237 8.56688 15.6725 8.4157 15.6725 8.23932V7.559C15.6725 7.38263 15.8237 7.23145 16 7.23145C16.1764 7.23145 16.3276 7.38263 16.3276 7.559V8.23932C16.3276 8.4157 16.1764 8.56688 16 8.56688Z" fill="#ACB3BA"/>
<path d="M21.2661 10.7338C21.1401 10.6078 21.1401 10.4062 21.2661 10.2803L21.7449 9.80152C21.8708 9.67554 22.0724 9.67554 22.1984 9.80152C22.3244 9.9275 22.3244 10.1291 22.1984 10.2551L21.7197 10.7338C21.5685 10.8598 21.3669 10.8598 21.2661 10.7338Z" fill="#ACB3BA"/>
<path d="M9.82679 9.82667C9.95277 9.70068 10.1543 9.70068 10.2803 9.82667L10.7591 10.3054C10.8851 10.4314 10.8851 10.633 10.7591 10.7589C10.6331 10.8849 10.4315 10.8849 10.3055 10.7589L9.82679 10.2802C9.7008 10.1542 9.7008 9.95265 9.82679 9.82667Z" fill="#ACB3BA"/>
<path d="M13.1527 9.12121C13.0015 9.1968 12.7999 9.12121 12.7495 8.94483L12.4976 8.31491C12.422 8.16373 12.4976 7.96215 12.6739 7.91176C12.8251 7.83617 13.0267 7.91176 13.0771 8.08813L13.3291 8.71806C13.4047 8.86924 13.3291 9.07081 13.1527 9.12121Z" fill="#ACB3BA"/>
<path d="M22.8788 13.1527C22.8032 13.0015 22.8788 12.7999 23.0552 12.7495L23.6851 12.4976C23.8363 12.422 24.0379 12.4976 24.0883 12.6739C24.1638 12.8251 24.0883 13.0267 23.9119 13.0771L23.2819 13.3291C23.1308 13.4047 22.9292 13.3291 22.8788 13.1527Z" fill="#ACB3BA"/>
<path d="M18.8472 9.12112C18.696 9.04553 18.6204 8.86915 18.6708 8.71797L18.9228 8.08804C18.9984 7.93686 19.1748 7.86127 19.3259 7.91167C19.4771 7.98726 19.5527 8.16364 19.5023 8.31482L19.2503 8.94474C19.2 9.12112 18.9984 9.19671 18.8472 9.12112Z" fill="#ACB3BA"/>
<path d="M7.91179 12.6488C7.98738 12.4977 8.16376 12.4221 8.31494 12.4725L8.94486 12.7244C9.09604 12.8 9.17163 12.9764 9.12124 13.1276C9.04565 13.2788 8.86927 13.3543 8.71809 13.304L8.08817 13.052C7.93698 13.0016 7.86139 12.8252 7.91179 12.6488Z" fill="#ACB3BA"/>
<path d="M15.9999 5.82039C16.3478 5.82039 16.6298 5.53836 16.6298 5.19047C16.6298 4.84257 16.3478 4.56055 15.9999 4.56055C15.652 4.56055 15.37 4.84257 15.37 5.19047C15.37 5.53836 15.652 5.82039 15.9999 5.82039Z" fill="#2B3B4E"/>
<path d="M15.9999 27.4393C16.3478 27.4393 16.6298 27.1573 16.6298 26.8094C16.6298 26.4615 16.3478 26.1794 15.9999 26.1794C15.652 26.1794 15.37 26.4615 15.37 26.8094C15.37 27.1573 15.652 27.4393 15.9999 27.4393Z" fill="#2B3B4E"/>
<path d="M26.8094 16.6298C27.1573 16.6298 27.4393 16.3478 27.4393 15.9999C27.4393 15.652 27.1573 15.37 26.8094 15.37C26.4615 15.37 26.1794 15.652 26.1794 15.9999C26.1794 16.3478 26.4615 16.6298 26.8094 16.6298Z" fill="#2B3B4E"/>
<path d="M5.19047 16.6298C5.53836 16.6298 5.82039 16.3478 5.82039 15.9999C5.82039 15.652 5.53836 15.37 5.19047 15.37C4.84257 15.37 4.56055 15.652 4.56055 15.9999C4.56055 16.3478 4.84257 16.6298 5.19047 16.6298Z" fill="#2B3B4E"/>
</svg>
