<svg width="31" height="29" viewBox="0 0 31 29" fill="none" xmlns="http://www.w3.org/2000/svg">
<path d="M13.1967 2.90002C7.6023 2.90002 3.04541 7.23939 3.04541 12.5667C3.04541 17.894 7.6023 22.2334 13.1967 22.2334C15.6294 22.2334 17.8636 21.4107 19.6145 20.0451L25.6756 25.8168C25.7691 25.9096 25.8811 25.9837 26.0051 26.0347C26.1291 26.0857 26.2625 26.1127 26.3976 26.114C26.5326 26.1153 26.6666 26.0909 26.7916 26.0423C26.9167 25.9937 27.0303 25.9218 27.1258 25.8309C27.2213 25.7399 27.2968 25.6318 27.3478 25.5127C27.3989 25.3936 27.4244 25.266 27.4231 25.1374C27.4217 25.0088 27.3934 24.8818 27.3398 24.7637C27.2862 24.6457 27.2084 24.539 27.111 24.4499L21.05 18.6782C22.484 17.0108 23.3479 14.8833 23.3479 12.5667C23.3479 7.23939 18.791 2.90002 13.1967 2.90002ZM13.1967 4.83336C17.6938 4.83336 21.3177 8.28424 21.3177 12.5667C21.3177 16.8491 17.6938 20.3 13.1967 20.3C8.69953 20.3 5.07566 16.8491 5.07566 12.5667C5.07566 8.28424 8.69953 4.83336 13.1967 4.83336Z" fill="white"/>
</svg>
