<svg width="48" height="48" viewBox="0 0 48 48" fill="none" xmlns="http://www.w3.org/2000/svg">
<g clip-path="url(#clip0)">
<path d="M38.8762 0.00073745C38.9196 0.463561 38.9476 0.930514 38.9476 1.40381C38.9476 2.50526 38.8193 3.57693 38.5922 4.61098C39.4009 4.93988 40.3433 5.13235 41.3533 5.13235C41.3533 5.13235 46.7554 3.4846 46.7554 1.45101V1.35573C46.7554 0.876828 46.449 0.420346 45.9901 0H38.8761V0.00073745H38.8762Z" fill="#0793F2"/>
<path d="M27.2074 15.9961C26.1726 16.2231 25.1016 16.3515 24.0003 16.3515C22.8988 16.3515 21.8272 16.2232 20.7931 15.9961C20.4642 16.8048 20.2717 17.7472 20.2717 18.7572C20.2717 18.7572 21.9195 24.1594 23.9531 24.1594H24.0485C26.0814 24.1594 27.7298 18.7572 27.7298 18.7572C27.7288 17.7472 27.5363 16.8048 27.2074 15.9961Z" fill="#0793F2"/>
<path d="M16.5284 14.3305C14.6633 13.2484 13.054 11.7779 11.8107 10.0259C11.0173 10.4012 10.2343 10.9596 9.54849 11.7105C9.54849 11.7105 7.12508 16.8117 8.62682 18.1819L8.69747 18.2461C10.1992 19.6163 15.0574 16.7364 15.0574 16.7364C15.7431 15.9855 16.2268 15.1544 16.5284 14.3305Z" fill="#0793F2"/>
<path d="M39.3014 18.2462L39.3721 18.182C40.8738 16.8119 38.4504 11.7106 38.4504 11.7106C37.7653 10.9598 36.9816 10.4022 36.1882 10.026C34.9447 11.7788 33.3356 13.2485 31.4705 14.3306C31.7721 15.1545 32.2558 15.9856 32.9409 16.7365C32.9415 16.7363 37.7997 19.6162 39.3014 18.2462Z" fill="#0793F2"/>
<path d="M9.40802 4.61146C9.18104 3.57667 9.05257 2.5056 9.05257 1.40429C9.05257 0.93026 9.0806 0.463307 9.12396 0.0012207H2.00919C1.55035 0.420682 1.24475 0.877163 1.24475 1.35606V1.45149C1.24475 3.48434 6.64686 5.13284 6.64686 5.13284C7.65673 5.13284 8.5986 4.94036 9.40802 4.61146Z" fill="#0793F2"/>
<path d="M23.9993 14.5022C24.7294 14.5022 25.4402 14.4276 26.1372 14.3129C27.9518 14.0145 29.6413 13.3502 31.1237 12.3868C32.3294 11.603 33.3947 10.6275 34.282 9.50203C35.621 7.80457 36.5419 5.76862 36.9084 3.5424C37.0231 2.84522 37.0978 2.13446 37.0978 1.40454C37.0978 0.930504 37.0698 0.462813 37.0199 0.00146484H36.3332H11.6653H10.9786C10.9297 0.462666 10.9008 0.930356 10.9008 1.40454C10.9008 2.13461 10.9754 2.84537 11.0901 3.5424C11.4568 5.76773 12.3777 7.80368 13.7174 9.50114C14.6054 10.6266 15.6707 11.6021 16.8757 12.3859C18.3581 13.3493 20.0469 14.0136 21.8622 14.312C22.5594 14.4277 23.2702 14.5022 23.9993 14.5022Z" fill="#0793F2"/>
<path d="M11.5017 22.6864C10.734 22.242 9.75293 22.5027 9.30928 23.2712L4.2458 32.0137C3.80215 32.7798 4.06365 33.7617 4.8306 34.2054C5.08414 34.3521 5.36009 34.4221 5.6328 34.4221C6.18633 34.4221 6.7254 34.1356 7.02304 33.6215L12.0865 24.879C12.53 24.1127 12.2678 23.1308 11.5017 22.6864Z" fill="#0793F2"/>
<path d="M39.8076 23.2713C39.3639 22.5043 38.3821 22.2428 37.6152 22.6865C36.8482 23.1309 36.5867 24.112 37.0311 24.8782L42.0946 33.6207C42.3922 34.1348 42.9305 34.4212 43.4839 34.4212C43.7566 34.4212 44.0335 34.3515 44.2861 34.2046C45.0531 33.7602 45.3146 32.7791 44.8702 32.0129L39.8076 23.2713Z" fill="#0793F2"/>
<path d="M15.5881 36.3657C15.7374 36.4091 15.8873 36.4299 16.035 36.4299C16.7313 36.4299 17.3723 35.9734 17.5752 35.2715L20.2146 26.1584C20.4616 25.3065 19.9707 24.4168 19.1196 24.1705C18.2693 23.9242 17.3788 24.4143 17.1325 25.2647L14.4931 34.3778C14.2461 35.2297 14.7369 36.1194 15.5881 36.3657Z" fill="#0793F2"/>
<path d="M31.8328 35.3804C32.0798 36.0149 32.6855 36.4023 33.328 36.4023C33.5221 36.4023 33.7194 36.3662 33.9112 36.2916C34.7367 35.9699 35.1449 35.0385 34.8225 34.2139L31.2888 25.1553C30.9671 24.3291 30.0357 23.9223 29.2111 24.2433C28.3856 24.5649 27.9774 25.4963 28.2998 26.321L31.8328 35.3804Z" fill="#0793F2"/>
<path d="M22.7631 38.2549H22.0372C21.3738 38.2549 20.8338 38.8581 20.8338 39.5994V43.8647C20.8338 45.8533 18.6911 46.2705 16.8926 46.2705C15.4895 46.2705 13.1366 45.9577 13.1366 43.8647V39.5994C13.1366 38.8581 12.5968 38.2549 11.9332 38.2549H11.208C10.5446 38.2549 10.0046 38.8581 10.0046 39.5994V43.8383C10.0046 46.5217 12.4224 48.0001 16.8129 48.0001C21.4257 48.0001 23.9662 46.504 23.9662 43.7877V39.5994C23.9665 38.8572 23.4265 38.2549 22.7631 38.2549Z" fill="#0793F2"/>
<path d="M39.6014 38.2549H38.7439C38.1671 38.2549 37.4619 38.6432 37.105 39.1581L34.5933 42.7753C33.9371 43.7251 33.4092 44.5152 32.9664 45.2831C32.9328 45.3409 32.9007 45.3978 32.8694 45.4524L32.778 45.2775C32.3311 44.4447 31.7856 43.5816 31.2634 42.7729L28.9659 39.1935C28.6226 38.6584 27.9255 38.2549 27.3431 38.2549H26.4583C26.1101 38.2549 25.8318 38.4016 25.6946 38.6568C25.547 38.9327 25.5903 39.2841 25.8141 39.6218L30.6538 46.9316C31.0028 47.4585 31.703 47.8557 32.2831 47.8557H33.2201C33.7937 47.8557 34.5021 47.4755 34.8679 46.9717L40.2073 39.609C40.4455 39.2801 40.5026 38.9327 40.3613 38.6575C40.2312 38.4016 39.9544 38.2549 39.6014 38.2549Z" fill="#0793F2"/>
</g>
<defs>
<clipPath id="clip0">
<rect width="48" height="48" fill="white"/>
</clipPath>
</defs>
</svg>
