<svg width="36" height="36" viewBox="0 0 36 36" fill="none" xmlns="http://www.w3.org/2000/svg">
<path d="M20.2247 6.67407C17.9943 6.67407 16.1798 8.48863 16.1798 10.719H18.6068C18.6068 9.82689 19.3326 9.10105 20.2247 9.10105C21.1169 9.10105 21.8427 9.82689 21.8427 10.719C21.8427 11.6111 21.1169 12.337 20.2247 12.337H3.23596V14.764H20.2247C22.4551 14.764 24.2697 12.9494 24.2697 10.719C24.2697 8.48863 22.4551 6.67407 20.2247 6.67407Z" fill="#0793F2"/>
<path d="M30.3371 7.48315C27.8837 7.48315 25.8877 9.47918 25.8877 11.9326C25.8877 13.7169 27.3393 15.1685 29.1236 15.1685C30.9079 15.1685 32.3595 13.7168 32.3595 11.9326H29.9325C29.9325 12.3787 29.5696 12.7416 29.1235 12.7416C28.6774 12.7416 28.3145 12.3787 28.3145 11.9326C28.3145 10.8174 29.2218 9.91013 30.337 9.91013C32.1213 9.91013 33.5729 11.3618 33.5729 13.1461C33.5729 14.9304 32.1212 16.382 30.337 16.382H0V18.809H30.3371C33.4596 18.809 36 16.2686 36 13.1461C36 10.0235 33.4596 7.48315 30.3371 7.48315Z" fill="#0793F2"/>
<path d="M24.2697 20.427H3.23596V22.854H24.2697C25.3849 22.854 26.2921 23.7613 26.2921 24.8764C26.2921 25.9917 25.3848 26.8989 24.2697 26.8989C23.1545 26.8989 22.2472 25.9916 22.2472 24.8764H19.8202C19.8202 27.3299 21.8162 29.3259 24.2697 29.3259C26.7231 29.3259 28.7191 27.3299 28.7191 24.8764C28.7191 22.423 26.7232 20.427 24.2697 20.427Z" fill="#0793F2"/>
</svg>
